<?xml version="1.0" encoding="UTF-8" standalone="no"?><svg xmlns="http://www.w3.org/2000/svg" xmlns:xlink="http://www.w3.org/1999/xlink" contentStyleType="text/css" height="561px" preserveAspectRatio="none" style="width:394px;height:561px;background:#FFFFFF;" version="1.1" viewBox="0 0 394 561" width="394px" zoomAndPan="magnify"><defs/><rect width="100%" height="100%" fill="White"/><g><line style="stroke:#181818;stroke-width:0.5;stroke-dasharray:5.0,5.0;" x1="47" x2="47" y1="52.5801" y2="509.4771"/><line style="stroke:#181818;stroke-width:0.5;stroke-dasharray:5.0,5.0;" x1="147" x2="147" y1="52.5801" y2="509.4771"/><line style="stroke:#181818;stroke-width:0.5;stroke-dasharray:5.0,5.0;" x1="247" x2="247" y1="52.5801" y2="509.4771"/><line style="stroke:#181818;stroke-width:0.5;stroke-dasharray:5.0,5.0;" x1="347" x2="347" y1="52.5801" y2="509.4771"/><rect fill="#E2E2F0" height="46.5801" rx="2.5" ry="2.5" style="stroke:#181818;stroke-width:0.5;" width="84" x="5" y="5"/><text fill="#000000" font-family="sans-serif" font-size="14" lengthAdjust="spacing" textLength="43" x="25.5" y="25.3027">Alice's</text><text fill="#000000" font-family="sans-serif" font-size="14" lengthAdjust="spacing" textLength="70" x="12" y="41.5928">softphone</text><rect fill="#E2E2F0" height="46.5801" rx="2.5" ry="2.5" style="stroke:#181818;stroke-width:0.5;" width="84" x="5" y="508.4771"/><text fill="#000000" font-family="sans-serif" font-size="14" lengthAdjust="spacing" textLength="43" x="25.5" y="528.7798">Alice's</text><text fill="#000000" font-family="sans-serif" font-size="14" lengthAdjust="spacing" textLength="70" x="12" y="545.0698">softphone</text><rect fill="#E2E2F0" height="46.5801" rx="2.5" ry="2.5" style="stroke:#181818;stroke-width:0.5;" width="94" x="100" y="5"/><text fill="#000000" font-family="sans-serif" font-size="14" lengthAdjust="spacing" textLength="80" x="107" y="25.3027">atlanta.com</text><text fill="#000000" font-family="sans-serif" font-size="14" lengthAdjust="spacing" textLength="40" x="127" y="41.5928">proxy</text><rect fill="#E2E2F0" height="46.5801" rx="2.5" ry="2.5" style="stroke:#181818;stroke-width:0.5;" width="94" x="100" y="508.4771"/><text fill="#000000" font-family="sans-serif" font-size="14" lengthAdjust="spacing" textLength="80" x="107" y="528.7798">atlanta.com</text><text fill="#000000" font-family="sans-serif" font-size="14" lengthAdjust="spacing" textLength="40" x="127" y="545.0698">proxy</text><rect fill="#E2E2F0" height="46.5801" rx="2.5" ry="2.5" style="stroke:#181818;stroke-width:0.5;" width="86" x="204" y="5"/><text fill="#000000" font-family="sans-serif" font-size="14" lengthAdjust="spacing" textLength="72" x="211" y="25.3027">biloxi.com</text><text fill="#000000" font-family="sans-serif" font-size="14" lengthAdjust="spacing" textLength="40" x="227" y="41.5928">proxy</text><rect fill="#E2E2F0" height="46.5801" rx="2.5" ry="2.5" style="stroke:#181818;stroke-width:0.5;" width="86" x="204" y="508.4771"/><text fill="#000000" font-family="sans-serif" font-size="14" lengthAdjust="spacing" textLength="72" x="211" y="528.7798">biloxi.com</text><text fill="#000000" font-family="sans-serif" font-size="14" lengthAdjust="spacing" textLength="40" x="227" y="545.0698">proxy</text><rect fill="#E2E2F0" height="46.5801" rx="2.5" ry="2.5" style="stroke:#181818;stroke-width:0.5;" width="82" x="306" y="5"/><text fill="#000000" font-family="sans-serif" font-size="14" lengthAdjust="spacing" textLength="36" x="329" y="25.3027">Bob's</text><text fill="#000000" font-family="sans-serif" font-size="14" lengthAdjust="spacing" textLength="68" x="313" y="41.5928">SIP phone</text><rect fill="#E2E2F0" height="46.5801" rx="2.5" ry="2.5" style="stroke:#181818;stroke-width:0.5;" width="82" x="306" y="508.4771"/><text fill="#000000" font-family="sans-serif" font-size="14" lengthAdjust="spacing" textLength="36" x="329" y="528.7798">Bob's</text><text fill="#000000" font-family="sans-serif" font-size="14" lengthAdjust="spacing" textLength="68" x="313" y="545.0698">SIP phone</text><polygon fill="#181818" points="135,79.7065,145,83.7065,135,87.7065,139,83.7065" style="stroke:#181818;stroke-width:1.0;"/><line style="stroke:#181818;stroke-width:1.0;" x1="47" x2="141" y1="83.7065" y2="83.7065"/><text fill="#000000" font-family="sans-serif" font-size="13" lengthAdjust="spacing" textLength="42" x="54" y="78.9326">INVITE</text><polygon fill="#181818" points="235,108.833,245,112.833,235,116.833,239,112.833" style="stroke:#181818;stroke-width:1.0;"/><line style="stroke:#181818;stroke-width:1.0;" x1="147" x2="241" y1="112.833" y2="112.833"/><text fill="#000000" font-family="sans-serif" font-size="13" lengthAdjust="spacing" textLength="42" x="154" y="108.0591">INVITE</text><polygon fill="#181818" points="58,137.9595,48,141.9595,58,145.9595,54,141.9595" style="stroke:#181818;stroke-width:1.0;"/><line style="stroke:#181818;stroke-width:1.0;stroke-dasharray:2.0,2.0;" x1="52" x2="146" y1="141.9595" y2="141.9595"/><text fill="#000000" font-family="sans-serif" font-size="13" lengthAdjust="spacing" textLength="68" x="64" y="137.1855">100 Trying</text><polygon fill="#181818" points="335,167.0859,345,171.0859,335,175.0859,339,171.0859" style="stroke:#181818;stroke-width:1.0;"/><line style="stroke:#181818;stroke-width:1.0;" x1="247" x2="341" y1="171.0859" y2="171.0859"/><text fill="#000000" font-family="sans-serif" font-size="13" lengthAdjust="spacing" textLength="42" x="254" y="166.312">INVITE</text><polygon fill="#181818" points="158,196.2124,148,200.2124,158,204.2124,154,200.2124" style="stroke:#181818;stroke-width:1.0;"/><line style="stroke:#181818;stroke-width:1.0;stroke-dasharray:2.0,2.0;" x1="152" x2="246" y1="200.2124" y2="200.2124"/><text fill="#000000" font-family="sans-serif" font-size="13" lengthAdjust="spacing" textLength="68" x="164" y="195.4385">100 Trying</text><polygon fill="#181818" points="258,225.3389,248,229.3389,258,233.3389,254,229.3389" style="stroke:#181818;stroke-width:1.0;"/><line style="stroke:#181818;stroke-width:1.0;stroke-dasharray:2.0,2.0;" x1="252" x2="346" y1="229.3389" y2="229.3389"/><text fill="#000000" font-family="sans-serif" font-size="13" lengthAdjust="spacing" textLength="76" x="264" y="224.5649">180 Ringing</text><polygon fill="#181818" points="158,254.4653,148,258.4653,158,262.4653,154,258.4653" style="stroke:#181818;stroke-width:1.0;"/><line style="stroke:#181818;stroke-width:1.0;stroke-dasharray:2.0,2.0;" x1="152" x2="246" y1="258.4653" y2="258.4653"/><text fill="#000000" font-family="sans-serif" font-size="13" lengthAdjust="spacing" textLength="76" x="164" y="253.6914">180 Ringing</text><polygon fill="#181818" points="58,283.5918,48,287.5918,58,291.5918,54,287.5918" style="stroke:#181818;stroke-width:1.0;"/><line style="stroke:#181818;stroke-width:1.0;stroke-dasharray:2.0,2.0;" x1="52" x2="146" y1="287.5918" y2="287.5918"/><text fill="#000000" font-family="sans-serif" font-size="13" lengthAdjust="spacing" textLength="76" x="64" y="282.8179">180 Ringing</text><polygon fill="#181818" points="258,312.7183,248,316.7183,258,320.7183,254,316.7183" style="stroke:#181818;stroke-width:1.0;"/><line style="stroke:#181818;stroke-width:1.0;stroke-dasharray:2.0,2.0;" x1="252" x2="346" y1="316.7183" y2="316.7183"/><text fill="#000000" font-family="sans-serif" font-size="13" lengthAdjust="spacing" textLength="46" x="264" y="311.9443">200 OK</text><polygon fill="#181818" points="158,341.8447,148,345.8447,158,349.8447,154,345.8447" style="stroke:#181818;stroke-width:1.0;"/><line style="stroke:#181818;stroke-width:1.0;stroke-dasharray:2.0,2.0;" x1="152" x2="246" y1="345.8447" y2="345.8447"/><text fill="#000000" font-family="sans-serif" font-size="13" lengthAdjust="spacing" textLength="46" x="164" y="341.0708">200 OK</text><polygon fill="#181818" points="58,370.9712,48,374.9712,58,378.9712,54,374.9712" style="stroke:#181818;stroke-width:1.0;"/><line style="stroke:#181818;stroke-width:1.0;stroke-dasharray:2.0,2.0;" x1="52" x2="146" y1="374.9712" y2="374.9712"/><text fill="#000000" font-family="sans-serif" font-size="13" lengthAdjust="spacing" textLength="46" x="64" y="370.1973">200 OK</text><polygon fill="#181818" points="335,400.0977,345,404.0977,335,408.0977,339,404.0977" style="stroke:#181818;stroke-width:1.0;"/><line style="stroke:#181818;stroke-width:1.0;" x1="47" x2="341" y1="404.0977" y2="404.0977"/><text fill="#000000" font-family="sans-serif" font-size="13" lengthAdjust="spacing" textLength="26" x="54" y="399.3237">ACK</text><polygon fill="#181818" points="58,429.2241,48,433.2241,58,437.2241,54,433.2241" style="stroke:#181818;stroke-width:1.0;"/><polygon fill="#181818" points="335,429.2241,345,433.2241,335,437.2241,339,433.2241" style="stroke:#181818;stroke-width:1.0;"/><line style="stroke:#181818;stroke-width:1.0;" x1="52" x2="341" y1="433.2241" y2="433.2241"/><text fill="#000000" font-family="sans-serif" font-size="13" lengthAdjust="spacing" textLength="89" x="64" y="428.4502">Media session</text><polygon fill="#181818" points="58,458.3506,48,462.3506,58,466.3506,54,462.3506" style="stroke:#181818;stroke-width:1.0;"/><line style="stroke:#181818;stroke-width:1.0;" x1="52" x2="346" y1="462.3506" y2="462.3506"/><text fill="#000000" font-family="sans-serif" font-size="13" lengthAdjust="spacing" textLength="22" x="64" y="457.5767">BYE</text><polygon fill="#181818" points="335,487.4771,345,491.4771,335,495.4771,339,491.4771" style="stroke:#181818;stroke-width:1.0;"/><line style="stroke:#181818;stroke-width:1.0;stroke-dasharray:2.0,2.0;" x1="47" x2="341" y1="491.4771" y2="491.4771"/><text fill="#000000" font-family="sans-serif" font-size="13" lengthAdjust="spacing" textLength="46" x="54" y="486.7031">200 OK</text><!--MD5=[ce7b3a0337933a2ca59cfffa309e08e7]
@startuml
participant "Alice's\nsoftphone" as Alice
participant "atlanta.com\nproxy" as Atlanta
participant "biloxi.com\nproxy" as Biloxi
participant "Bob's\nSIP phone" as Bob
Alice -> Atlanta : INVITE
Atlanta -> Biloxi : INVITE
Alice <- - Atlanta : 100 Trying
Biloxi -> Bob : INVITE
Atlanta <- - Biloxi : 100 Trying
Biloxi <- - Bob : 180 Ringing
Atlanta <- - Biloxi : 180 Ringing
Alice <- - Atlanta : 180 Ringing
Biloxi <- - Bob : 200 OK
Atlanta <- - Biloxi : 200 OK
Alice <- - Atlanta : 200 OK
Alice -> Bob : ACK 
Alice <-> Bob : Media session
Alice <- Bob : BYE 
Alice - -> Bob : 200 OK
@enduml

PlantUML version 1.2022.5(Sat Apr 30 10:55:52 UTC 2022)
(GPLV2 source distribution)
Java Runtime: OpenJDK Runtime Environment
JVM: OpenJDK 64-Bit Server VM
Default Encoding: UTF-8
Language: en
Country: US
--></g></svg>